<svg width="25" height="20" viewBox="0 0 30 28" fill="none" xmlns="http://www.w3.org/2000/svg">
  <path d="M30 10.8788V22.8636C29.9987 24.2254 29.4472 25.5312 28.4666 26.494C27.4861 27.457 26.1564 27.9986 24.7695 28H14.3087V26.2878H24.7695C25.694 26.2866 26.58 25.9253 27.2335 25.2834C27.8874 24.6417 28.2552 23.7714 28.2567 22.8636V10.8788C28.2552 9.97107 27.8874 9.10088 27.2335 8.45899C26.58 7.81715 25.694 7.45591 24.7695 7.45456H3.33703L7.95026 11.9848L6.71763 13.1953L0 6.5985L6.71763 0L7.95026 1.21047L3.33703 5.74244H24.7695C26.1564 5.7438 27.4861 6.2854 28.4666 7.24836C29.4472 8.21132 29.9987 9.517 30 10.8788Z" fill="#F7F7F7"/>
</svg>
